<svg width="651" height="62" viewBox="0 0 651 62" fill="none" xmlns="http://www.w3.org/2000/svg">
<path d="M9.06676 48H1.15767L13.2088 13.0909H22.7202L34.7543 48H26.8452L18.1009 21.0682H17.8281L9.06676 48ZM8.57244 34.2784H27.2543V40.0398H8.57244V34.2784ZM46.081 32.8636V48H38.8196V21.8182H45.7401V26.4375H46.0469C46.6264 24.9148 47.598 23.7102 48.9616 22.8239C50.3253 21.9261 51.9787 21.4773 53.9219 21.4773C55.7401 21.4773 57.3253 21.875 58.6776 22.6705C60.0298 23.4659 61.081 24.6023 61.831 26.0795C62.581 27.5455 62.956 29.2955 62.956 31.3295V48H55.6946V32.625C55.706 31.0227 55.2969 29.7727 54.4673 28.875C53.6378 27.9659 52.4957 27.5114 51.0412 27.5114C50.0639 27.5114 49.2003 27.7216 48.4503 28.142C47.7116 28.5625 47.1321 29.1761 46.7116 29.983C46.3026 30.7784 46.0923 31.7386 46.081 32.8636ZM78.3267 48.4261C76.3381 48.4261 74.5369 47.9148 72.9233 46.892C71.321 45.858 70.0483 44.3409 69.1051 42.3409C68.1733 40.3295 67.7074 37.8636 67.7074 34.9432C67.7074 31.9432 68.1903 29.4489 69.1562 27.4602C70.1222 25.4602 71.4063 23.9659 73.0085 22.9773C74.6222 21.9773 76.3892 21.4773 78.3097 21.4773C79.7756 21.4773 80.9972 21.7273 81.9744 22.2273C82.9631 22.7159 83.7585 23.3295 84.3608 24.0682C84.9744 24.7955 85.4403 25.5114 85.7585 26.2159H85.9801V13.0909H93.2244V48H86.0653V43.8068H85.7585C85.4176 44.5341 84.9347 45.2557 84.3097 45.9716C83.696 46.6761 82.8949 47.2614 81.9062 47.7273C80.929 48.1932 79.7358 48.4261 78.3267 48.4261ZM80.6278 42.6477C81.7983 42.6477 82.7869 42.3295 83.5938 41.6932C84.4119 41.0455 85.0369 40.142 85.4688 38.983C85.9119 37.8239 86.1335 36.4659 86.1335 34.9091C86.1335 33.3523 85.9176 32 85.4858 30.8523C85.054 29.7045 84.429 28.8182 83.6108 28.1932C82.7926 27.5682 81.7983 27.2557 80.6278 27.2557C79.4347 27.2557 78.429 27.5795 77.6108 28.2273C76.7926 28.875 76.1733 29.7727 75.7528 30.9205C75.3324 32.0682 75.1222 33.3977 75.1222 34.9091C75.1222 36.4318 75.3324 37.7784 75.7528 38.9489C76.1847 40.108 76.804 41.017 77.6108 41.6761C78.429 42.3239 79.4347 42.6477 80.6278 42.6477ZM99.1946 48V21.8182H106.234V26.3864H106.507C106.984 24.7614 107.786 23.5341 108.911 22.7045C110.036 21.8636 111.331 21.4432 112.797 21.4432C113.161 21.4432 113.553 21.4659 113.973 21.5114C114.393 21.5568 114.763 21.6193 115.081 21.6989V28.142C114.74 28.0398 114.268 27.9489 113.666 27.8693C113.064 27.7898 112.513 27.75 112.013 27.75C110.945 27.75 109.99 27.983 109.149 28.4489C108.32 28.9034 107.661 29.5398 107.172 30.358C106.695 31.1761 106.456 32.1193 106.456 33.1875V48H99.1946ZM129.446 48.5114C126.798 48.5114 124.509 47.9489 122.577 46.8239C120.656 45.6875 119.173 44.108 118.128 42.0852C117.082 40.0511 116.56 37.6932 116.56 35.0114C116.56 32.3068 117.082 29.9432 118.128 27.9205C119.173 25.8864 120.656 24.3068 122.577 23.1818C124.509 22.0455 126.798 21.4773 129.446 21.4773C132.094 21.4773 134.378 22.0455 136.298 23.1818C138.23 24.3068 139.719 25.8864 140.764 27.9205C141.81 29.9432 142.332 32.3068 142.332 35.0114C142.332 37.6932 141.81 40.0511 140.764 42.0852C139.719 44.108 138.23 45.6875 136.298 46.8239C134.378 47.9489 132.094 48.5114 129.446 48.5114ZM129.48 42.8864C130.685 42.8864 131.69 42.5455 132.497 41.8636C133.304 41.1705 133.912 40.2273 134.321 39.0341C134.741 37.8409 134.952 36.483 134.952 34.9602C134.952 33.4375 134.741 32.0795 134.321 30.8864C133.912 29.6932 133.304 28.75 132.497 28.0568C131.69 27.3636 130.685 27.017 129.48 27.017C128.264 27.017 127.241 27.3636 126.412 28.0568C125.594 28.75 124.974 29.6932 124.554 30.8864C124.145 32.0795 123.94 33.4375 123.94 34.9602C123.94 36.483 124.145 37.8409 124.554 39.0341C124.974 40.2273 125.594 41.1705 126.412 41.8636C127.241 42.5455 128.264 42.8864 129.48 42.8864ZM147.054 48V21.8182H153.974V26.4375H154.281C154.827 24.9034 155.736 23.6932 157.009 22.8068C158.281 21.9205 159.804 21.4773 161.577 21.4773C163.372 21.4773 164.901 21.9261 166.162 22.8239C167.423 23.7102 168.264 24.9148 168.685 26.4375H168.957C169.491 24.9375 170.457 23.7386 171.855 22.8409C173.264 21.9318 174.929 21.4773 176.849 21.4773C179.293 21.4773 181.276 22.2557 182.798 23.8125C184.332 25.358 185.099 27.5511 185.099 30.392V48H177.855V31.8239C177.855 30.3693 177.469 29.2784 176.696 28.5511C175.923 27.8239 174.957 27.4602 173.798 27.4602C172.48 27.4602 171.452 27.8807 170.713 28.7216C169.974 29.5511 169.605 30.6477 169.605 32.0114V48H162.565V31.6705C162.565 30.3864 162.196 29.3636 161.457 28.6023C160.73 27.8409 159.77 27.4602 158.577 27.4602C157.77 27.4602 157.043 27.6648 156.395 28.0739C155.759 28.4716 155.253 29.0341 154.878 29.7614C154.503 30.4773 154.315 31.3182 154.315 32.2841V48H147.054ZM202.767 48.5114C200.074 48.5114 197.756 47.9659 195.812 46.875C193.881 45.7727 192.392 44.2159 191.347 42.2045C190.301 40.1818 189.778 37.7898 189.778 35.0284C189.778 32.3352 190.301 29.9716 191.347 27.9375C192.392 25.9034 193.864 24.3182 195.761 23.1818C197.67 22.0455 199.909 21.4773 202.477 21.4773C204.205 21.4773 205.813 21.7557 207.301 22.3125C208.801 22.858 210.108 23.6818 211.222 24.7841C212.347 25.8864 213.222 27.2727 213.847 28.9432C214.472 30.6023 214.784 32.5455 214.784 34.7727V36.767H192.676V32.267H207.949C207.949 31.2216 207.722 30.2955 207.267 29.4886C206.813 28.6818 206.182 28.0511 205.375 27.5966C204.58 27.1307 203.653 26.8977 202.597 26.8977C201.494 26.8977 200.517 27.1534 199.665 27.6648C198.824 28.1648 198.165 28.8409 197.688 29.6932C197.21 30.5341 196.966 31.4716 196.955 32.5057V36.7841C196.955 38.0795 197.193 39.1989 197.67 40.142C198.159 41.0852 198.847 41.8125 199.733 42.3239C200.619 42.8352 201.67 43.0909 202.886 43.0909C203.693 43.0909 204.432 42.9773 205.102 42.75C205.773 42.5227 206.347 42.1818 206.824 41.7273C207.301 41.2727 207.665 40.7159 207.915 40.0568L214.631 40.5C214.29 42.1136 213.591 43.5227 212.534 44.7273C211.489 45.9205 210.136 46.8523 208.477 47.5227C206.83 48.1818 204.926 48.5114 202.767 48.5114ZM229.17 48.4261C227.182 48.4261 225.381 47.9148 223.767 46.892C222.165 45.858 220.892 44.3409 219.949 42.3409C219.017 40.3295 218.551 37.8636 218.551 34.9432C218.551 31.9432 219.034 29.4489 220 27.4602C220.966 25.4602 222.25 23.9659 223.852 22.9773C225.466 21.9773 227.233 21.4773 229.153 21.4773C230.619 21.4773 231.841 21.7273 232.818 22.2273C233.807 22.7159 234.602 23.3295 235.205 24.0682C235.818 24.7955 236.284 25.5114 236.602 26.2159H236.824V13.0909H244.068V48H236.909V43.8068H236.602C236.261 44.5341 235.778 45.2557 235.153 45.9716C234.54 46.6761 233.739 47.2614 232.75 47.7273C231.773 48.1932 230.58 48.4261 229.17 48.4261ZM231.472 42.6477C232.642 42.6477 233.631 42.3295 234.438 41.6932C235.256 41.0455 235.881 40.142 236.312 38.983C236.756 37.8239 236.977 36.4659 236.977 34.9091C236.977 33.3523 236.761 32 236.33 30.8523C235.898 29.7045 235.273 28.8182 234.455 28.1932C233.636 27.5682 232.642 27.2557 231.472 27.2557C230.278 27.2557 229.273 27.5795 228.455 28.2273C227.636 28.875 227.017 29.7727 226.597 30.9205C226.176 32.0682 225.966 33.3977 225.966 34.9091C225.966 36.4318 226.176 37.7784 226.597 38.9489C227.028 40.108 227.648 41.017 228.455 41.6761C229.273 42.3239 230.278 42.6477 231.472 42.6477ZM257.504 48.4943C255.834 48.4943 254.345 48.2045 253.038 47.625C251.732 47.0341 250.697 46.1648 249.936 45.017C249.186 43.858 248.811 42.4148 248.811 40.6875C248.811 39.233 249.078 38.0114 249.612 37.0227C250.146 36.0341 250.874 35.2386 251.794 34.6364C252.714 34.0341 253.76 33.5795 254.93 33.2727C256.112 32.9659 257.351 32.75 258.646 32.625C260.169 32.4659 261.396 32.3182 262.328 32.1818C263.26 32.0341 263.936 31.8182 264.357 31.5341C264.777 31.25 264.987 30.8295 264.987 30.2727V30.1705C264.987 29.0909 264.646 28.2557 263.964 27.6648C263.294 27.0739 262.339 26.7784 261.101 26.7784C259.794 26.7784 258.754 27.0682 257.982 27.6477C257.209 28.2159 256.697 28.9318 256.447 29.7955L249.732 29.25C250.072 27.6591 250.743 26.2841 251.743 25.125C252.743 23.9545 254.033 23.0568 255.612 22.4318C257.203 21.7955 259.044 21.4773 261.135 21.4773C262.589 21.4773 263.982 21.6477 265.311 21.9886C266.652 22.3295 267.839 22.858 268.874 23.5739C269.919 24.2898 270.743 25.2102 271.345 26.3352C271.947 27.4489 272.249 28.7841 272.249 30.3409V48H265.362V44.3693H265.158C264.737 45.1875 264.175 45.9091 263.47 46.5341C262.766 47.1477 261.919 47.6307 260.93 47.983C259.942 48.3239 258.8 48.4943 257.504 48.4943ZM259.584 43.483C260.652 43.483 261.595 43.2727 262.413 42.8523C263.232 42.4205 263.874 41.8409 264.339 41.1136C264.805 40.3864 265.038 39.5625 265.038 38.642V35.8636C264.811 36.0114 264.499 36.1477 264.101 36.2727C263.714 36.3864 263.277 36.4943 262.788 36.5966C262.3 36.6875 261.811 36.7727 261.322 36.8523C260.834 36.9205 260.391 36.983 259.993 37.0398C259.141 37.1648 258.396 37.3636 257.76 37.6364C257.124 37.9091 256.629 38.2784 256.277 38.7443C255.925 39.1989 255.749 39.767 255.749 40.4489C255.749 41.4375 256.107 42.1932 256.822 42.7159C257.55 43.2273 258.47 43.483 259.584 43.483Z" fill="white"/>
<path d="M312.732 21.8182C312.528 20.0909 311.698 18.75 310.244 17.7955C308.789 16.8409 307.005 16.3636 304.891 16.3636C303.346 16.3636 301.994 16.6136 300.835 17.1136C299.687 17.6136 298.789 18.3011 298.141 19.1761C297.505 20.0511 297.187 21.0455 297.187 22.1591C297.187 23.0909 297.408 23.892 297.852 24.5625C298.306 25.2216 298.886 25.7727 299.59 26.2159C300.295 26.6477 301.033 27.0057 301.806 27.2898C302.579 27.5625 303.289 27.7841 303.937 27.9545L307.482 28.9091C308.391 29.1477 309.403 29.4773 310.516 29.8977C311.641 30.3182 312.715 30.892 313.738 31.6193C314.772 32.3352 315.624 33.2557 316.295 34.3807C316.965 35.5057 317.3 36.8864 317.3 38.5227C317.3 40.4091 316.806 42.1136 315.817 43.6364C314.84 45.1591 313.408 46.3693 311.522 47.267C309.647 48.1648 307.369 48.6136 304.687 48.6136C302.187 48.6136 300.022 48.2102 298.192 47.4034C296.374 46.5966 294.942 45.4716 293.897 44.0284C292.863 42.5852 292.278 40.9091 292.141 39H296.505C296.619 40.3182 297.062 41.4091 297.835 42.2727C298.619 43.125 299.607 43.7614 300.8 44.1818C302.005 44.5909 303.3 44.7955 304.687 44.7955C306.3 44.7955 307.749 44.5341 309.033 44.0114C310.317 43.4773 311.335 42.7386 312.085 41.7955C312.835 40.8409 313.21 39.7273 313.21 38.4545C313.21 37.2955 312.886 36.3523 312.238 35.625C311.59 34.8977 310.738 34.3068 309.681 33.8523C308.624 33.3977 307.482 33 306.255 32.6591L301.96 31.4318C299.232 30.6477 297.073 29.5284 295.482 28.0739C293.891 26.6193 293.096 24.7159 293.096 22.3636C293.096 20.4091 293.624 18.7045 294.681 17.25C295.749 15.7841 297.181 14.6477 298.977 13.8409C300.783 13.0227 302.8 12.6136 305.028 12.6136C307.278 12.6136 309.278 13.017 311.028 13.8239C312.778 14.6193 314.164 15.7102 315.187 17.0966C316.221 18.483 316.766 20.0568 316.823 21.8182H312.732ZM334.342 48.5455C331.887 48.5455 329.773 47.9659 328.001 46.8068C326.228 45.6477 324.864 44.0511 323.91 42.017C322.955 39.983 322.478 37.6591 322.478 35.0455C322.478 32.3864 322.967 30.0398 323.944 28.0057C324.933 25.9602 326.308 24.3636 328.069 23.2159C329.842 22.0568 331.91 21.4773 334.273 21.4773C336.114 21.4773 337.773 21.8182 339.251 22.5C340.728 23.1818 341.938 24.1364 342.881 25.3636C343.825 26.5909 344.41 28.0227 344.637 29.6591H340.614C340.308 28.4659 339.626 27.4091 338.569 26.4886C337.523 25.5568 336.114 25.0909 334.342 25.0909C332.773 25.0909 331.398 25.5 330.217 26.3182C329.046 27.125 328.131 28.267 327.472 29.7443C326.825 31.2102 326.501 32.9318 326.501 34.9091C326.501 36.9318 326.819 38.6932 327.455 40.1932C328.103 41.6932 329.012 42.858 330.183 43.6875C331.364 44.517 332.751 44.9318 334.342 44.9318C335.387 44.9318 336.336 44.75 337.188 44.3864C338.04 44.0227 338.762 43.5 339.353 42.8182C339.944 42.1364 340.364 41.3182 340.614 40.3636H344.637C344.41 41.9091 343.847 43.3011 342.95 44.5398C342.063 45.767 340.887 46.7443 339.421 47.4716C337.967 48.1875 336.273 48.5455 334.342 48.5455ZM354.54 32.25V48H350.518V13.0909H354.54V25.9091H354.881C355.495 24.5568 356.415 23.483 357.643 22.6875C358.881 21.8807 360.529 21.4773 362.586 21.4773C364.37 21.4773 365.933 21.8352 367.273 22.5511C368.614 23.2557 369.654 24.3409 370.393 25.8068C371.143 27.2614 371.518 29.1136 371.518 31.3636V48H367.495V31.6364C367.495 29.5568 366.955 27.9489 365.876 26.8125C364.808 25.6648 363.325 25.0909 361.427 25.0909C360.109 25.0909 358.927 25.3693 357.881 25.9261C356.847 26.483 356.029 27.2955 355.427 28.3636C354.836 29.4318 354.54 30.7273 354.54 32.25ZM389.854 48.5455C387.332 48.5455 385.156 47.9886 383.326 46.875C381.508 45.75 380.104 44.1818 379.116 42.1705C378.138 40.1477 377.65 37.7955 377.65 35.1136C377.65 32.4318 378.138 30.0682 379.116 28.0227C380.104 25.9659 381.479 24.3636 383.241 23.2159C385.013 22.0568 387.082 21.4773 389.445 21.4773C390.809 21.4773 392.156 21.7045 393.485 22.1591C394.815 22.6136 396.025 23.3523 397.116 24.375C398.207 25.3864 399.076 26.7273 399.724 28.3977C400.371 30.0682 400.695 32.125 400.695 34.5682V36.2727H380.513V32.7955H396.604C396.604 31.3182 396.309 30 395.718 28.8409C395.138 27.6818 394.309 26.767 393.229 26.0966C392.161 25.4261 390.9 25.0909 389.445 25.0909C387.843 25.0909 386.457 25.4886 385.286 26.2841C384.127 27.0682 383.235 28.0909 382.61 29.3523C381.985 30.6136 381.673 31.9659 381.673 33.4091V35.7273C381.673 37.7045 382.013 39.3807 382.695 40.7557C383.388 42.1193 384.349 43.1591 385.576 43.875C386.803 44.5795 388.229 44.9318 389.854 44.9318C390.911 44.9318 391.866 44.7841 392.718 44.4886C393.582 44.1818 394.326 43.7273 394.951 43.125C395.576 42.5114 396.059 41.75 396.4 40.8409L400.286 41.9318C399.877 43.25 399.19 44.4091 398.224 45.4091C397.258 46.3977 396.065 47.1705 394.644 47.7273C393.224 48.2727 391.627 48.5455 389.854 48.5455ZM416.701 48.5455C414.519 48.5455 412.593 47.9943 410.923 46.892C409.252 45.7784 407.945 44.2102 407.002 42.1875C406.059 40.1534 405.587 37.75 405.587 34.9773C405.587 32.2273 406.059 29.8409 407.002 27.8182C407.945 25.7955 409.258 24.233 410.94 23.1307C412.621 22.0284 414.565 21.4773 416.769 21.4773C418.474 21.4773 419.82 21.7614 420.809 22.3295C421.809 22.8864 422.57 23.5227 423.093 24.2386C423.627 24.9432 424.042 25.5227 424.337 25.9773H424.678V13.0909H428.701V48H424.815V43.9773H424.337C424.042 44.4545 423.621 45.0568 423.076 45.7841C422.531 46.5 421.752 47.142 420.741 47.7102C419.729 48.267 418.383 48.5455 416.701 48.5455ZM417.246 44.9318C418.86 44.9318 420.224 44.5114 421.337 43.6705C422.451 42.8182 423.298 41.642 423.877 40.142C424.457 38.6307 424.746 36.8864 424.746 34.9091C424.746 32.9545 424.462 31.2443 423.894 29.7784C423.326 28.3011 422.485 27.1534 421.371 26.3352C420.258 25.5057 418.883 25.0909 417.246 25.0909C415.542 25.0909 414.121 25.5284 412.985 26.4034C411.86 27.267 411.013 28.4432 410.445 29.9318C409.888 31.4091 409.61 33.0682 409.61 34.9091C409.61 36.7727 409.894 38.4659 410.462 39.9886C411.042 41.5 411.894 42.7045 413.019 43.6023C414.156 44.4886 415.565 44.9318 417.246 44.9318ZM453.127 37.2955V21.8182H457.15V48H453.127V43.5682H452.854C452.241 44.8977 451.286 46.0284 449.991 46.9602C448.695 47.8807 447.059 48.3409 445.082 48.3409C443.445 48.3409 441.991 47.983 440.718 47.267C439.445 46.5398 438.445 45.4489 437.718 43.9943C436.991 42.5284 436.627 40.6818 436.627 38.4545V21.8182H440.65V38.1818C440.65 40.0909 441.184 41.6136 442.252 42.75C443.332 43.8864 444.707 44.4545 446.377 44.4545C447.377 44.4545 448.394 44.1989 449.428 43.6875C450.474 43.1761 451.349 42.392 452.053 41.3352C452.769 40.2784 453.127 38.9318 453.127 37.2955ZM468.54 13.0909V48H464.518V13.0909H468.54ZM486.886 48.5455C484.363 48.5455 482.187 47.9886 480.357 46.875C478.539 45.75 477.136 44.1818 476.147 42.1705C475.17 40.1477 474.681 37.7955 474.681 35.1136C474.681 32.4318 475.17 30.0682 476.147 28.0227C477.136 25.9659 478.511 24.3636 480.272 23.2159C482.045 22.0568 484.113 21.4773 486.477 21.4773C487.84 21.4773 489.187 21.7045 490.516 22.1591C491.846 22.6136 493.056 23.3523 494.147 24.375C495.238 25.3864 496.107 26.7273 496.755 28.3977C497.403 30.0682 497.727 32.125 497.727 34.5682V36.2727H477.545V32.7955H493.636C493.636 31.3182 493.34 30 492.749 28.8409C492.17 27.6818 491.34 26.767 490.261 26.0966C489.192 25.4261 487.931 25.0909 486.477 25.0909C484.874 25.0909 483.488 25.4886 482.317 26.2841C481.158 27.0682 480.266 28.0909 479.641 29.3523C479.016 30.6136 478.704 31.9659 478.704 33.4091V35.7273C478.704 37.7045 479.045 39.3807 479.727 40.7557C480.42 42.1193 481.38 43.1591 482.607 43.875C483.835 44.5795 485.261 44.9318 486.886 44.9318C487.942 44.9318 488.897 44.7841 489.749 44.4886C490.613 44.1818 491.357 43.7273 491.982 43.125C492.607 42.5114 493.09 41.75 493.431 40.8409L497.317 41.9318C496.908 43.25 496.221 44.4091 495.255 45.4091C494.289 46.3977 493.096 47.1705 491.675 47.7273C490.255 48.2727 488.658 48.5455 486.886 48.5455ZM503.846 48V21.8182H507.732V25.7727H508.005C508.482 24.4773 509.346 23.4261 510.596 22.6193C511.846 21.8125 513.255 21.4091 514.823 21.4091C515.119 21.4091 515.488 21.4148 515.931 21.4261C516.374 21.4375 516.71 21.4545 516.937 21.4773V25.5682C516.8 25.5341 516.488 25.483 515.999 25.4148C515.522 25.3352 515.016 25.2955 514.482 25.2955C513.21 25.2955 512.073 25.5625 511.073 26.0966C510.085 26.6193 509.3 27.3466 508.721 28.2784C508.153 29.1989 507.869 30.25 507.869 31.4318V48H503.846ZM535.137 48V44.9318L546.66 32.3182C548.012 30.8409 549.126 29.5568 550.001 28.4659C550.876 27.3636 551.523 26.3295 551.944 25.3636C552.376 24.3864 552.592 23.3636 552.592 22.2955C552.592 21.0682 552.296 20.0057 551.705 19.108C551.126 18.2102 550.33 17.517 549.319 17.0284C548.308 16.5398 547.171 16.2955 545.91 16.2955C544.569 16.2955 543.398 16.5739 542.398 17.1307C541.41 17.6761 540.643 18.4432 540.097 19.4318C539.563 20.4205 539.296 21.5795 539.296 22.9091H535.273C535.273 20.8636 535.745 19.0682 536.688 17.5227C537.631 15.9773 538.915 14.7727 540.54 13.9091C542.177 13.0455 544.012 12.6136 546.046 12.6136C548.092 12.6136 549.904 13.0455 551.484 13.9091C553.063 14.7727 554.302 15.9375 555.2 17.4034C556.097 18.8693 556.546 20.5 556.546 22.2955C556.546 23.5795 556.313 24.8352 555.847 26.0625C555.393 27.2784 554.597 28.6364 553.461 30.1364C552.336 31.625 550.773 33.4432 548.773 35.5909L540.933 43.9773V44.25H557.16V48H535.137ZM575.586 48.4773C573.018 48.4773 570.83 47.7784 569.023 46.3807C567.217 44.9716 565.836 42.9318 564.881 40.2614C563.927 37.5795 563.45 34.3409 563.45 30.5455C563.45 26.7727 563.927 23.5511 564.881 20.8807C565.847 18.1989 567.234 16.1534 569.04 14.7443C570.859 13.3239 573.04 12.6136 575.586 12.6136C578.131 12.6136 580.308 13.3239 582.114 14.7443C583.933 16.1534 585.319 18.1989 586.273 20.8807C587.239 23.5511 587.722 26.7727 587.722 30.5455C587.722 34.3409 587.245 37.5795 586.29 40.2614C585.336 42.9318 583.955 44.9716 582.148 46.3807C580.342 47.7784 578.154 48.4773 575.586 48.4773ZM575.586 44.7273C578.131 44.7273 580.109 43.5 581.518 41.0455C582.927 38.5909 583.631 35.0909 583.631 30.5455C583.631 27.5227 583.308 24.9489 582.66 22.8239C582.023 20.6989 581.103 19.0795 579.898 17.9659C578.705 16.8523 577.268 16.2955 575.586 16.2955C573.063 16.2955 571.092 17.5398 569.671 20.0284C568.251 22.5057 567.54 26.0114 567.54 30.5455C567.54 33.5682 567.859 36.1364 568.495 38.25C569.131 40.3636 570.046 41.9716 571.239 43.0739C572.444 44.1761 573.893 44.7273 575.586 44.7273ZM605.586 48.4773C603.018 48.4773 600.83 47.7784 599.023 46.3807C597.217 44.9716 595.836 42.9318 594.881 40.2614C593.927 37.5795 593.45 34.3409 593.45 30.5455C593.45 26.7727 593.927 23.5511 594.881 20.8807C595.847 18.1989 597.234 16.1534 599.04 14.7443C600.859 13.3239 603.04 12.6136 605.586 12.6136C608.131 12.6136 610.308 13.3239 612.114 14.7443C613.933 16.1534 615.319 18.1989 616.273 20.8807C617.239 23.5511 617.722 26.7727 617.722 30.5455C617.722 34.3409 617.245 37.5795 616.29 40.2614C615.336 42.9318 613.955 44.9716 612.148 46.3807C610.342 47.7784 608.154 48.4773 605.586 48.4773ZM605.586 44.7273C608.131 44.7273 610.109 43.5 611.518 41.0455C612.927 38.5909 613.631 35.0909 613.631 30.5455C613.631 27.5227 613.308 24.9489 612.66 22.8239C612.023 20.6989 611.103 19.0795 609.898 17.9659C608.705 16.8523 607.268 16.2955 605.586 16.2955C603.063 16.2955 601.092 17.5398 599.671 20.0284C598.251 22.5057 597.54 26.0114 597.54 30.5455C597.54 33.5682 597.859 36.1364 598.495 38.25C599.131 40.3636 600.046 41.9716 601.239 43.0739C602.444 44.1761 603.893 44.7273 605.586 44.7273ZM635.586 48.4773C633.018 48.4773 630.83 47.7784 629.023 46.3807C627.217 44.9716 625.836 42.9318 624.881 40.2614C623.927 37.5795 623.45 34.3409 623.45 30.5455C623.45 26.7727 623.927 23.5511 624.881 20.8807C625.847 18.1989 627.234 16.1534 629.04 14.7443C630.859 13.3239 633.04 12.6136 635.586 12.6136C638.131 12.6136 640.308 13.3239 642.114 14.7443C643.933 16.1534 645.319 18.1989 646.273 20.8807C647.239 23.5511 647.722 26.7727 647.722 30.5455C647.722 34.3409 647.245 37.5795 646.29 40.2614C645.336 42.9318 643.955 44.9716 642.148 46.3807C640.342 47.7784 638.154 48.4773 635.586 48.4773ZM635.586 44.7273C638.131 44.7273 640.109 43.5 641.518 41.0455C642.927 38.5909 643.631 35.0909 643.631 30.5455C643.631 27.5227 643.308 24.9489 642.66 22.8239C642.023 20.6989 641.103 19.0795 639.898 17.9659C638.705 16.8523 637.268 16.2955 635.586 16.2955C633.063 16.2955 631.092 17.5398 629.671 20.0284C628.251 22.5057 627.54 26.0114 627.54 30.5455C627.54 33.5682 627.859 36.1364 628.495 38.25C629.131 40.3636 630.046 41.9716 631.239 43.0739C632.444 44.1761 633.893 44.7273 635.586 44.7273Z" fill="white"/>
</svg>
